<?xml version="1.0" encoding="UTF-8" standalone="no"?><svg xmlns="http://www.w3.org/2000/svg" xmlns:xlink="http://www.w3.org/1999/xlink" contentStyleType="text/css" height="523px" preserveAspectRatio="none" style="width:794px;height:523px;background:#FFFFFF;" version="1.1" viewBox="0 0 794 523" width="794px" zoomAndPan="magnify"><defs/><g><!--MD5=[d50e0583ae06f58af8100b4e35bf1acd]
class Calculadora--><g id="elem_Calculadora"><rect codeLine="1" fill="#F1F1F1" height="129.4844" id="Calculadora" rx="2.5" ry="2.5" style="stroke:#181818;stroke-width:0.5;" width="236" x="280" y="197"/><ellipse cx="353.75" cy="213" fill="#A9DCDF" rx="11" ry="11" style="stroke:#181818;stroke-width:1.0;"/><path d="M353.8594,208.3438 L352.7031,213.4219 L355.0313,213.4219 L353.8594,208.3438 Z M352.375,206.1094 L355.3594,206.1094 L358.7188,218.5 L356.2656,218.5 L355.5,215.4375 L352.2188,215.4375 L351.4688,218.5 L349.0313,218.5 L352.375,206.1094 Z " fill="#000000"/><text fill="#000000" font-family="sans-serif" font-size="14" font-style="italic" lengthAdjust="spacing" textLength="80" x="374.25" y="217.8467">Calculadora</text><line style="stroke:#181818;stroke-width:0.5;" x1="281" x2="515" y1="229" y2="229"/><line style="stroke:#181818;stroke-width:0.5;" x1="281" x2="515" y1="237" y2="237"/><ellipse cx="291" cy="250.6484" fill="#84BE84" rx="3" ry="3" style="stroke:#038048;stroke-width:1.0;"/><text fill="#000000" font-family="sans-serif" font-size="14" lengthAdjust="spacing" textLength="210" x="300" y="253.9951">String sumar(String a, String b)</text><ellipse cx="291" cy="266.9453" fill="#84BE84" rx="3" ry="3" style="stroke:#038048;stroke-width:1.0;"/><text fill="#000000" font-family="sans-serif" font-size="14" lengthAdjust="spacing" textLength="207" x="300" y="270.292">String restar(String a, String b)</text><polygon fill="#FFFF44" points="291,278.2422,295,282.2422,291,286.2422,287,282.2422" style="stroke:#B38D22;stroke-width:1.0;"/><text fill="#000000" font-family="sans-serif" font-size="14" lengthAdjust="spacing" textLength="137" x="300" y="286.5889">void validar(String s)</text><polygon fill="#FFFF44" points="291,294.5391,295,298.5391,291,302.5391,287,298.5391" style="stroke:#B38D22;stroke-width:1.0;"/><text fill="#000000" font-family="sans-serif" font-size="14" lengthAdjust="spacing" textLength="122" x="300" y="302.8857">int parse(String s)</text><polygon fill="#FFFF44" points="291,310.8359,295,314.8359,291,318.8359,287,314.8359" style="stroke:#B38D22;stroke-width:1.0;"/><text fill="#000000" font-family="sans-serif" font-size="14" lengthAdjust="spacing" textLength="173" x="300" y="319.1826">String formatear(int valor)</text></g><!--MD5=[5255502862da5efb68758559cbe9e5a6]
class CalculadoraDecimal--><g id="elem_CalculadoraDecimal"><rect codeLine="9" fill="#F1F1F1" height="129.4844" id="CalculadoraDecimal" rx="2.5" ry="2.5" style="stroke:#181818;stroke-width:0.5;" width="236" x="9" y="387"/><ellipse cx="55.25" cy="403" fill="#ADD1B2" rx="11" ry="11" style="stroke:#181818;stroke-width:1.0;"/><path d="M58.2188,408.6406 Q57.6406,408.9375 57,409.0781 Q56.3594,409.2344 55.6563,409.2344 Q53.1563,409.2344 51.8281,407.5938 Q50.5156,405.9375 50.5156,402.8125 Q50.5156,399.6875 51.8281,398.0313 Q53.1563,396.375 55.6563,396.375 Q56.3594,396.375 57,396.5313 Q57.6563,396.6875 58.2188,396.9844 L58.2188,399.7031 Q57.5938,399.125 57,398.8594 Q56.4063,398.5781 55.7813,398.5781 Q54.4375,398.5781 53.75,399.6563 Q53.0625,400.7188 53.0625,402.8125 Q53.0625,404.9063 53.75,405.9844 Q54.4375,407.0469 55.7813,407.0469 Q56.4063,407.0469 57,406.7813 Q57.5938,406.5 58.2188,405.9219 L58.2188,408.6406 Z " fill="#000000"/><text fill="#000000" font-family="sans-serif" font-size="14" lengthAdjust="spacing" textLength="135" x="75.75" y="407.8467">CalculadoraDecimal</text><line style="stroke:#181818;stroke-width:0.5;" x1="10" x2="244" y1="419" y2="419"/><line style="stroke:#181818;stroke-width:0.5;" x1="10" x2="244" y1="427" y2="427"/><ellipse cx="20" cy="440.6484" fill="#84BE84" rx="3" ry="3" style="stroke:#038048;stroke-width:1.0;"/><text fill="#000000" font-family="sans-serif" font-size="14" lengthAdjust="spacing" textLength="210" x="29" y="443.9951">String sumar(String a, String b)</text><ellipse cx="20" cy="456.9453" fill="#84BE84" rx="3" ry="3" style="stroke:#038048;stroke-width:1.0;"/><text fill="#000000" font-family="sans-serif" font-size="14" lengthAdjust="spacing" textLength="207" x="29" y="460.292">String restar(String a, String b)</text><polygon fill="#FFFF44" points="20,468.2422,24,472.2422,20,476.2422,16,472.2422" style="stroke:#B38D22;stroke-width:1.0;"/><text fill="#000000" font-family="sans-serif" font-size="14" lengthAdjust="spacing" textLength="137" x="29" y="476.5889">void validar(String s)</text><polygon fill="#FFFF44" points="20,484.5391,24,488.5391,20,492.5391,16,488.5391" style="stroke:#B38D22;stroke-width:1.0;"/><text fill="#000000" font-family="sans-serif" font-size="14" lengthAdjust="spacing" textLength="122" x="29" y="492.8857">int parse(String s)</text><polygon fill="#FFFF44" points="20,500.8359,24,504.8359,20,508.8359,16,504.8359" style="stroke:#B38D22;stroke-width:1.0;"/><text fill="#000000" font-family="sans-serif" font-size="14" lengthAdjust="spacing" textLength="173" x="29" y="509.1826">String formatear(int valor)</text></g><!--MD5=[4dce3537acb45ad2ffcf681b5e4c5e06]
class CalculadoraBinaria--><g id="elem_CalculadoraBinaria"><rect codeLine="17" fill="#F1F1F1" height="129.4844" id="CalculadoraBinaria" rx="2.5" ry="2.5" style="stroke:#181818;stroke-width:0.5;" width="236" x="280" y="387"/><ellipse cx="330.75" cy="403" fill="#ADD1B2" rx="11" ry="11" style="stroke:#181818;stroke-width:1.0;"/><path d="M333.7188,408.6406 Q333.1406,408.9375 332.5,409.0781 Q331.8594,409.2344 331.1563,409.2344 Q328.6563,409.2344 327.3281,407.5938 Q326.0156,405.9375 326.0156,402.8125 Q326.0156,399.6875 327.3281,398.0313 Q328.6563,396.375 331.1563,396.375 Q331.8594,396.375 332.5,396.5313 Q333.1563,396.6875 333.7188,396.9844 L333.7188,399.7031 Q333.0938,399.125 332.5,398.8594 Q331.9063,398.5781 331.2813,398.5781 Q329.9375,398.5781 329.25,399.6563 Q328.5625,400.7188 328.5625,402.8125 Q328.5625,404.9063 329.25,405.9844 Q329.9375,407.0469 331.2813,407.0469 Q331.9063,407.0469 332.5,406.7813 Q333.0938,406.5 333.7188,405.9219 L333.7188,408.6406 Z " fill="#000000"/><text fill="#000000" font-family="sans-serif" font-size="14" lengthAdjust="spacing" textLength="126" x="351.25" y="407.8467">CalculadoraBinaria</text><line style="stroke:#181818;stroke-width:0.5;" x1="281" x2="515" y1="419" y2="419"/><line style="stroke:#181818;stroke-width:0.5;" x1="281" x2="515" y1="427" y2="427"/><ellipse cx="291" cy="440.6484" fill="#84BE84" rx="3" ry="3" style="stroke:#038048;stroke-width:1.0;"/><text fill="#000000" font-family="sans-serif" font-size="14" lengthAdjust="spacing" textLength="210" x="300" y="443.9951">String sumar(String a, String b)</text><ellipse cx="291" cy="456.9453" fill="#84BE84" rx="3" ry="3" style="stroke:#038048;stroke-width:1.0;"/><text fill="#000000" font-family="sans-serif" font-size="14" lengthAdjust="spacing" textLength="207" x="300" y="460.292">String restar(String a, String b)</text><polygon fill="#FFFF44" points="291,468.2422,295,472.2422,291,476.2422,287,472.2422" style="stroke:#B38D22;stroke-width:1.0;"/><text fill="#000000" font-family="sans-serif" font-size="14" lengthAdjust="spacing" textLength="137" x="300" y="476.5889">void validar(String s)</text><polygon fill="#FFFF44" points="291,484.5391,295,488.5391,291,492.5391,287,488.5391" style="stroke:#B38D22;stroke-width:1.0;"/><text fill="#000000" font-family="sans-serif" font-size="14" lengthAdjust="spacing" textLength="122" x="300" y="492.8857">int parse(String s)</text><polygon fill="#FFFF44" points="291,500.8359,295,504.8359,291,508.8359,287,504.8359" style="stroke:#B38D22;stroke-width:1.0;"/><text fill="#000000" font-family="sans-serif" font-size="14" lengthAdjust="spacing" textLength="173" x="300" y="509.1826">String formatear(int valor)</text></g><!--MD5=[24c7f2fdcc1b6ac8bb635afffd36c386]
class CalculadoraOctal--><g id="elem_CalculadoraOctal"><rect codeLine="25" fill="#F1F1F1" height="129.4844" id="CalculadoraOctal" rx="2.5" ry="2.5" style="stroke:#181818;stroke-width:0.5;" width="236" x="551" y="387"/><ellipse cx="607.25" cy="403" fill="#ADD1B2" rx="11" ry="11" style="stroke:#181818;stroke-width:1.0;"/><path d="M610.2188,408.6406 Q609.6406,408.9375 609,409.0781 Q608.3594,409.2344 607.6563,409.2344 Q605.1563,409.2344 603.8281,407.5938 Q602.5156,405.9375 602.5156,402.8125 Q602.5156,399.6875 603.8281,398.0313 Q605.1563,396.375 607.6563,396.375 Q608.3594,396.375 609,396.5313 Q609.6563,396.6875 610.2188,396.9844 L610.2188,399.7031 Q609.5938,399.125 609,398.8594 Q608.4063,398.5781 607.7813,398.5781 Q606.4375,398.5781 605.75,399.6563 Q605.0625,400.7188 605.0625,402.8125 Q605.0625,404.9063 605.75,405.9844 Q606.4375,407.0469 607.7813,407.0469 Q608.4063,407.0469 609,406.7813 Q609.5938,406.5 610.2188,405.9219 L610.2188,408.6406 Z " fill="#000000"/><text fill="#000000" font-family="sans-serif" font-size="14" lengthAdjust="spacing" textLength="115" x="627.75" y="407.8467">CalculadoraOctal</text><line style="stroke:#181818;stroke-width:0.5;" x1="552" x2="786" y1="419" y2="419"/><line style="stroke:#181818;stroke-width:0.5;" x1="552" x2="786" y1="427" y2="427"/><ellipse cx="562" cy="440.6484" fill="#84BE84" rx="3" ry="3" style="stroke:#038048;stroke-width:1.0;"/><text fill="#000000" font-family="sans-serif" font-size="14" lengthAdjust="spacing" textLength="210" x="571" y="443.9951">String sumar(String a, String b)</text><ellipse cx="562" cy="456.9453" fill="#84BE84" rx="3" ry="3" style="stroke:#038048;stroke-width:1.0;"/><text fill="#000000" font-family="sans-serif" font-size="14" lengthAdjust="spacing" textLength="207" x="571" y="460.292">String restar(String a, String b)</text><polygon fill="#FFFF44" points="562,468.2422,566,472.2422,562,476.2422,558,472.2422" style="stroke:#B38D22;stroke-width:1.0;"/><text fill="#000000" font-family="sans-serif" font-size="14" lengthAdjust="spacing" textLength="137" x="571" y="476.5889">void validar(String s)</text><polygon fill="#FFFF44" points="562,484.5391,566,488.5391,562,492.5391,558,488.5391" style="stroke:#B38D22;stroke-width:1.0;"/><text fill="#000000" font-family="sans-serif" font-size="14" lengthAdjust="spacing" textLength="122" x="571" y="492.8857">int parse(String s)</text><polygon fill="#FFFF44" points="562,500.8359,566,504.8359,562,508.8359,558,504.8359" style="stroke:#B38D22;stroke-width:1.0;"/><text fill="#000000" font-family="sans-serif" font-size="14" lengthAdjust="spacing" textLength="173" x="571" y="509.1826">String formatear(int valor)</text></g><!--MD5=[84718776d214be480e4c259efcb737fc]
class Main--><g id="elem_Main"><rect codeLine="33" fill="#F1F1F1" height="113.1875" id="Main" rx="2.5" ry="2.5" style="stroke:#181818;stroke-width:0.5;" width="226" x="285" y="7"/><ellipse cx="377.75" cy="23" fill="#ADD1B2" rx="11" ry="11" style="stroke:#181818;stroke-width:1.0;"/><path d="M380.7188,28.6406 Q380.1406,28.9375 379.5,29.0781 Q378.8594,29.2344 378.1563,29.2344 Q375.6563,29.2344 374.3281,27.5938 Q373.0156,25.9375 373.0156,22.8125 Q373.0156,19.6875 374.3281,18.0313 Q375.6563,16.375 378.1563,16.375 Q378.8594,16.375 379.5,16.5313 Q380.1563,16.6875 380.7188,16.9844 L380.7188,19.7031 Q380.0938,19.125 379.5,18.8594 Q378.9063,18.5781 378.2813,18.5781 Q376.9375,18.5781 376.25,19.6563 Q375.5625,20.7188 375.5625,22.8125 Q375.5625,24.9063 376.25,25.9844 Q376.9375,27.0469 378.2813,27.0469 Q378.9063,27.0469 379.5,26.7813 Q380.0938,26.5 380.7188,25.9219 L380.7188,28.6406 Z " fill="#000000"/><text fill="#000000" font-family="sans-serif" font-size="14" lengthAdjust="spacing" textLength="32" x="398.25" y="27.8467">Main</text><line style="stroke:#181818;stroke-width:0.5;" x1="286" x2="510" y1="39" y2="39"/><rect fill="none" height="6" style="stroke:#C82930;stroke-width:1.0;" width="6" x="293" y="49.6484"/><text fill="#000000" font-family="sans-serif" font-size="14" lengthAdjust="spacing" textLength="61" x="305" y="55.9951">a : String</text><rect fill="none" height="6" style="stroke:#C82930;stroke-width:1.0;" width="6" x="293" y="65.9453"/><text fill="#000000" font-family="sans-serif" font-size="14" lengthAdjust="spacing" textLength="62" x="305" y="72.292">b : String</text><rect fill="none" height="6" style="stroke:#C82930;stroke-width:1.0;" width="6" x="293" y="82.2422"/><text fill="#000000" font-family="sans-serif" font-size="14" lengthAdjust="spacing" textLength="118" x="305" y="88.5889">resultado : String</text><line style="stroke:#181818;stroke-width:0.5;" x1="286" x2="510" y1="95.8906" y2="95.8906"/><ellipse cx="296" cy="109.5391" fill="#84BE84" rx="3" ry="3" style="stroke:#038048;stroke-width:1.0;"/><text fill="#000000" font-family="sans-serif" font-size="14" lengthAdjust="spacing" textLength="200" x="305" y="112.8857">static void main(String[] args)</text></g><!--MD5=[1055d93758a19ca45cf9904b5d8e00bf]
reverse link Calculadora to CalculadoraDecimal--><g id="link_Calculadora_CalculadoraDecimal"><path d="M277.24,337.59 C253.27,353.93 228.7,371.07 206.52,386.92 " fill="none" id="Calculadora-backto-CalculadoraDecimal" style="stroke:#181818;stroke-width:1.0;"/><polygon fill="none" points="273.63,331.58,294.11,326.15,281.49,343.17,273.63,331.58" style="stroke:#181818;stroke-width:1.0;"/></g><!--MD5=[1055d93758a19ca45cf9904b5d8e00bf]
reverse link Calculadora to CalculadoraDecimal--><g id="link_Calculadora_CalculadoraDecimal"><path codeLine="40" d="M302.67,337.83 C279.64,354.1 254.93,371.15 231.5,386.92 " fill="none" id="Calculadora-backto-CalculadoraDecimal-1" style="stroke:#181818;stroke-width:1.0;"/><polygon fill="none" points="298.75,332.03,319.11,326.15,306.86,343.44,298.75,332.03" style="stroke:#181818;stroke-width:1.0;"/></g><!--MD5=[9942be1306193c51a2c82aedd705189c]
reverse link Calculadora to CalculadoraBinaria--><g id="link_Calculadora_CalculadoraBinaria"><path d="M385.32,346.42 C385.14,360.02 385.32,373.9 385.86,386.92 " fill="none" id="Calculadora-backto-CalculadoraBinaria" style="stroke:#181818;stroke-width:1.0;"/><polygon fill="none" points="378.33,345.95,385.86,326.15,392.32,346.33,378.33,345.95" style="stroke:#181818;stroke-width:1.0;"/></g><!--MD5=[9942be1306193c51a2c82aedd705189c]
reverse link Calculadora to CalculadoraBinaria--><g id="link_Calculadora_CalculadoraBinaria"><path codeLine="41" d="M411.43,346.42 C411.62,360.02 411.43,373.9 410.85,386.92 " fill="none" id="Calculadora-backto-CalculadoraBinaria-1" style="stroke:#181818;stroke-width:1.0;"/><polygon fill="none" points="404.43,346.34,410.85,326.15,418.42,345.94,404.43,346.34" style="stroke:#181818;stroke-width:1.0;"/></g><!--MD5=[64d99a1fa79dad9f3549a5c99177aa94]
reverse link Calculadora to CalculadoraOctal--><g id="link_Calculadora_CalculadoraOctal"><path d="M494.06,337.83 C517.12,354.1 541.82,371.15 565.21,386.92 " fill="none" id="Calculadora-backto-CalculadoraOctal" style="stroke:#181818;stroke-width:1.0;"/><polygon fill="none" points="489.86,343.43,477.61,326.15,497.97,332.02,489.86,343.43" style="stroke:#181818;stroke-width:1.0;"/></g><!--MD5=[64d99a1fa79dad9f3549a5c99177aa94]
reverse link Calculadora to CalculadoraOctal--><g id="link_Calculadora_CalculadoraOctal"><path codeLine="42" d="M519.5,337.59 C543.49,353.93 568.06,371.07 590.2,386.92 " fill="none" id="Calculadora-backto-CalculadoraOctal-1" style="stroke:#181818;stroke-width:1.0;"/><polygon fill="none" points="515.24,343.16,502.6,326.15,523.09,331.57,515.24,343.16" style="stroke:#181818;stroke-width:1.0;"/></g><!--MD5=[3a1cf9c3f3039f433b457977eb60ded7]
link Main to Calculadora--><g id="link_Main_Calculadora"><path codeLine="43" d="M398,120.14 C398,142.34 398,168.14 398,191.51 " fill="none" id="Main-to-Calculadora" style="stroke:#181818;stroke-width:1.0;stroke-dasharray:7.0,7.0;"/><polygon fill="#181818" points="398,196.77,402,187.77,398,191.77,394,187.77,398,196.77" style="stroke:#181818;stroke-width:1.0;"/><text fill="#000000" font-family="sans-serif" font-size="13" lengthAdjust="spacing" textLength="82" x="399" y="163.0669">dependencia</text></g><!--MD5=[9938f87cbba9b5e161bb3e334f57478a]
@startuml
abstract class Calculadora {
  + String sumar(String a, String b)
  + String restar(String a, String b)
  # void validar(String s)
  # int parse(String s)
  # String formatear(int valor)
}

class CalculadoraDecimal extends Calculadora {
  + String sumar(String a, String b)
  + String restar(String a, String b)
  # void validar(String s)
  # int parse(String s)
  # String formatear(int valor)
}

class CalculadoraBinaria extends Calculadora {
  + String sumar(String a, String b)
  + String restar(String a, String b)
  # void validar(String s)
  # int parse(String s)
  # String formatear(int valor)
}

class CalculadoraOctal extends Calculadora {
  + String sumar(String a, String b)
  + String restar(String a, String b)
  # void validar(String s)
  # int parse(String s)
  # String formatear(int valor)
}

class Main {
    - a : String
    - b : String
    - resultado : String
  + static void main(String[] args)
}

Calculadora <|- - CalculadoraDecimal
Calculadora <|- - CalculadoraBinaria
Calculadora <|- - CalculadoraOctal
Main ..> Calculadora : dependencia
@enduml

PlantUML version 1.2022.7(Mon Aug 22 17:01:30 UTC 2022)
(GPL source distribution)
Java Runtime: OpenJDK Runtime Environment
JVM: OpenJDK 64-Bit Server VM
Default Encoding: UTF-8
Language: en
Country: null
--></g></svg>